<?xml version="1.0" encoding="utf-8"?>
<!-- Generator: Adobe Illustrator 17.0.0, SVG Export Plug-In . SVG Version: 6.00 Build 0)  -->
<!DOCTYPE svg PUBLIC "-//W3C//DTD SVG 1.1//EN" "http://www.w3.org/Graphics/SVG/1.1/DTD/svg11.dtd">
<svg version="1.1" id="Layer_1" xmlns="http://www.w3.org/2000/svg" xmlns:xlink="http://www.w3.org/1999/xlink" x="0px" y="0px"
	 width="150px" height="150px" viewBox="0 0 150 150" enable-background="new 0 0 150 150" xml:space="preserve">
<g id="Layer_x0020_1">
	<g>
		<defs>
			<path id="SVGID_1_" d="M-169,73.966c0,41.014,32.945,73.959,73.959,73.959s73.959-32.945,73.959-73.959
				S-54.028,0.007-95.041,0.007S-169,32.953-169,73.966z"/>
		</defs>
		<clipPath id="SVGID_2_">
			<use xlink:href="#SVGID_1_"  overflow="visible"/>
		</clipPath>
		<path clip-path="url(#SVGID_2_)" fill="#939393" d="M-168.192,73.785c0,41.014,32.945,73.959,73.959,73.959
			s73.959-32.945,73.959-73.959S-53.219-0.173-94.233-0.173S-168.192,32.772-168.192,73.785z"/>
		<path clip-path="url(#SVGID_2_)" fill="#C3C3C3" d="M-169.771,78.442c0,41.014,33.289,73.959,74.729,73.959
			s74.729-32.945,74.729-73.959S-53.6,4.483-95.041,4.483S-169.771,37.428-169.771,78.442z"/>
	</g>
	<g>
		<circle fill="#939393" cx="-95.152" cy="34.817" r="14.032"/>
		<circle fill="#FFFFFF" cx="-95.152" cy="32.979" r="14.032"/>
		<rect x="-110.17" y="65.731" fill="#939393" width="31.875" height="59.749"/>
		<rect x="-110.17" y="62.973" fill="#FFFFFF" width="31.875" height="59.749"/>
	</g>
</g>
<g id="Layer_x0020_1_1_">
	<g>
		<defs>
			<path id="SVGID_3_" d="M0.776,74.466c0,41.291,33.168,74.459,74.459,74.459s74.459-33.168,74.459-74.459
				S116.525,0.007,75.235,0.007S0.776,33.175,0.776,74.466z"/>
		</defs>
		<clipPath id="SVGID_4_">
			<use xlink:href="#SVGID_3_"  overflow="visible"/>
		</clipPath>
		<path clip-path="url(#SVGID_4_)" fill="#A71E22" d="M1.589,74.284c0,41.291,33.168,74.459,74.459,74.459
			s74.459-33.168,74.459-74.459S117.339-0.175,76.048-0.175S1.589,32.993,1.589,74.284z"/>
		<path clip-path="url(#SVGID_4_)" fill="#E0272F" d="M0,78.972c0,41.291,33.514,74.459,75.235,74.459s75.235-33.168,75.235-74.459
			S116.956,4.513,75.235,4.513S0,37.681,0,78.972z"/>
	</g>
	<g>
		<circle fill="#A31E21" cx="75.123" cy="35.052" r="14.127"/>
		<circle fill="#FFFFFF" cx="75.123" cy="33.201" r="14.127"/>
		<rect x="60.003" y="66.175" fill="#A31E21" width="32.09" height="60.153"/>
		<rect x="60.003" y="63.399" fill="#FFFFFF" width="32.09" height="60.153"/>
	</g>
</g>
</svg>
