<?xml version="1.0" encoding="utf-8"?>
<!-- Generator: Adobe Illustrator 17.0.0, SVG Export Plug-In . SVG Version: 6.00 Build 0)  -->
<!DOCTYPE svg PUBLIC "-//W3C//DTD SVG 1.1//EN" "http://www.w3.org/Graphics/SVG/1.1/DTD/svg11.dtd">
<svg version="1.1" id="Layer_1" xmlns="http://www.w3.org/2000/svg" xmlns:xlink="http://www.w3.org/1999/xlink" x="0px" y="0px"
	 width="150px" height="150px" viewBox="0 0 150 150" enable-background="new 0 0 150 150" xml:space="preserve">
<g id="Layer_x0020_1">
	<g>
		<g>
			<defs>
				<path id="SVGID_1_" d="M1,73.966c0,41.014,32.945,73.959,73.959,73.959s73.959-32.945,73.959-73.959S115.972,0.007,74.959,0.007
					S1,32.953,1,73.966z"/>
			</defs>
			<clipPath id="SVGID_2_">
				<use xlink:href="#SVGID_1_"  overflow="visible"/>
			</clipPath>
			<path clip-path="url(#SVGID_2_)" fill="#319625" d="M1.808,73.785c0,41.014,32.945,73.959,73.959,73.959
				s73.959-32.945,73.959-73.959S116.781-0.173,75.767-0.173S1.808,32.772,1.808,73.785z"/>
		</g>
		<g>
			<defs>
				<path id="SVGID_3_" d="M1,73.966c0,41.014,32.945,73.959,73.959,73.959s73.959-32.945,73.959-73.959S115.972,0.007,74.959,0.007
					S1,32.953,1,73.966z"/>
			</defs>
			<clipPath id="SVGID_4_">
				<use xlink:href="#SVGID_3_"  overflow="visible"/>
			</clipPath>
			<path clip-path="url(#SVGID_4_)" fill="#36A529" d="M0.229,78.442c0,41.014,33.289,73.959,74.729,73.959
				s74.729-32.945,74.729-73.959S116.4,4.483,74.959,4.483S0.229,37.428,0.229,78.442z"/>
		</g>
	</g>
	<g>
		<circle fill="#319625" cx="74.848" cy="34.817" r="14.032"/>
		<circle fill="#FFFFFF" cx="74.848" cy="32.979" r="14.032"/>
		<rect x="59.83" y="65.731" fill="#319625" width="31.875" height="59.749"/>
		<rect x="59.83" y="62.973" fill="#FFFFFF" width="31.875" height="59.749"/>
	</g>
</g>
</svg>
